<?xml version="1.0" standalone="no"?>
<!DOCTYPE svg PUBLIC "-//W3C//DTD SVG 20010904//EN"
 "http://www.w3.org/TR/2001/REC-SVG-20010904/DTD/svg10.dtd">
<svg version="1.0" xmlns="http://www.w3.org/2000/svg"
 width="639.000000pt" height="639.000000pt" viewBox="0 0 639.000000 639.000000"
 preserveAspectRatio="xMidYMid meet">
<metadata>
Created by potrace 1.14, written by Peter Selinger 2001-2017
</metadata>
<g transform="translate(0.000000,639.000000) scale(0.100000,-0.100000)"
fill="#000000" stroke="none">
<path d="M6303 5888 c1 -8 -10 -14 -25 -16 -25 -3 -27 -6 -17 -23 13 -26 3
-62 -11 -39 -8 13 -14 12 -42 -4 -18 -10 -39 -26 -46 -35 -10 -13 -16 -13 -32
-3 -11 7 -20 8 -20 3 0 -6 4 -12 10 -16 5 -3 6 -15 1 -28 -9 -24 -11 -31 -11
-47 0 -5 -6 -7 -14 -4 -8 3 -17 0 -21 -5 -3 -6 -11 -8 -17 -5 -8 5 -9 -3 -5
-24 6 -32 -13 -60 -33 -47 -5 3 -10 2 -10 -3 0 -4 -23 -9 -51 -9 -28 0 -56 -6
-62 -12 -17 -17 -43 -13 -58 9 -11 14 -27 20 -67 22 -29 1 -55 5 -58 10 -3 5
-10 6 -15 3 -5 -4 -9 -1 -9 5 0 6 -4 8 -10 5 -6 -4 -10 6 -10 24 0 16 -4 33
-10 36 -5 3 -10 13 -10 21 0 8 -7 26 -16 40 -16 24 -18 24 -42 8 -23 -15 -25
-15 -19 0 4 9 3 15 -2 11 -8 -4 -55 59 -56 75 0 3 -6 14 -13 25 -12 19 -12 19
-26 2 -8 -11 -12 -25 -9 -33 3 -8 0 -15 -6 -15 -6 -1 -17 -2 -23 -3 -7 0 -14
-7 -14 -13 -4 -35 -6 -36 -17 -15 -7 12 -16 19 -20 16 -4 -4 -7 0 -7 10 0 10
-5 14 -11 10 -7 -4 -8 -20 -4 -41 4 -24 3 -33 -4 -28 -6 3 -11 -1 -11 -9 0
-21 -16 -21 -24 0 -3 8 -11 12 -16 9 -6 -4 -16 -2 -23 3 -8 7 -19 5 -35 -8
-12 -10 -17 -20 -12 -22 6 -2 12 -13 13 -26 0 -12 4 -22 7 -22 3 0 17 -10 31
-23 27 -23 29 -50 3 -40 -8 3 -14 0 -14 -5 0 -6 -10 -14 -22 -18 -13 -3 -31
-15 -41 -25 -10 -11 -23 -17 -29 -13 -6 4 -13 1 -17 -5 -6 -9 -15 -8 -37 4
-26 14 -30 14 -39 -1 -5 -9 -31 -44 -57 -76 -46 -59 -46 -60 -27 -79 10 -10
19 -23 19 -29 0 -5 7 -10 15 -10 18 0 9 -26 -17 -52 -11 -11 -28 -17 -43 -14
-14 3 -27 0 -30 -5 -4 -5 3 -9 15 -9 l21 0 -21 -27 c-29 -37 -34 -35 -33 8 0
31 -3 36 -18 32 -15 -4 -18 -1 -13 11 3 9 2 16 -4 16 -5 0 -12 -9 -15 -20 -3
-11 -10 -20 -15 -20 -6 0 -14 9 -17 20 -8 25 -25 27 -23 3 1 -10 0 -37 0 -59
-2 -39 -5 -43 -44 -60 -24 -10 -50 -18 -58 -19 -10 0 -14 -8 -12 -23 4 -29
-16 -29 -27 1 -6 14 -4 28 5 41 16 23 -1 56 -29 56 -15 0 -18 5 -13 25 5 18 2
25 -8 25 -9 0 -13 6 -10 14 3 8 -3 23 -15 32 -11 10 -18 21 -15 26 3 4 1 8 -4
8 -5 0 -30 -24 -55 -53 -34 -40 -44 -59 -40 -78 3 -16 -1 -30 -11 -38 -22 -18
-20 -29 7 -33 21 -4 21 -5 -5 -18 -15 -7 -25 -17 -22 -22 3 -5 -1 -20 -10 -33
-13 -20 -13 -25 -1 -35 8 -7 13 -24 11 -41 -2 -16 1 -32 5 -35 14 -8 -1 -26
-17 -20 -26 10 -43 -4 -39 -34 l3 -28 -31 16 c-18 8 -35 20 -39 26 -3 5 -15
11 -25 13 -31 6 -38 8 -50 16 -8 5 -13 3 -13 -3 0 -6 -8 -10 -17 -8 -19 3 -75
-47 -65 -57 4 -3 -1 -3 -10 0 -10 4 -27 0 -40 -9 -12 -9 -32 -16 -44 -16 -22
0 -58 -32 -49 -43 3 -4 2 -5 -1 -2 -4 2 -16 -2 -27 -10 -15 -10 -24 -11 -33
-4 -9 8 -20 2 -41 -21 -19 -21 -34 -30 -47 -26 -11 3 -25 2 -30 -3 -22 -16
-56 -20 -56 -5 0 16 -16 19 -25 5 -3 -6 -14 -8 -25 -6 -11 2 -22 -1 -25 -6 -9
-14 -108 -3 -144 15 -37 19 -42 20 -50 9 -3 -4 -15 -13 -26 -19 -11 -6 -24
-27 -28 -48 -8 -32 -27 -51 -27 -26 0 6 -9 10 -20 10 -11 0 -23 7 -26 15 -5
12 -10 13 -20 4 -8 -6 -14 -9 -14 -5 0 4 -11 -1 -24 -9 -13 -9 -26 -29 -28
-45 -2 -16 -2 -27 2 -25 3 2 12 -1 20 -6 12 -7 11 -10 -6 -15 -15 -4 -20 -11
-17 -25 5 -19 10 -21 50 -22 12 0 20 -4 17 -8 -9 -16 41 -72 80 -89 36 -17 41
-17 55 -3 14 15 16 14 22 -8 3 -13 11 -23 17 -21 7 1 12 -2 12 -8 0 -5 6 -7
14 -4 7 3 16 -2 20 -11 3 -9 10 -14 14 -11 5 3 17 -1 28 -8 28 -21 3 -46 -42
-42 -35 2 -57 -17 -53 -47 3 -27 -2 -36 -21 -32 -11 2 -22 0 -25 -5 -3 -5 -17
-7 -30 -4 -17 3 -24 0 -23 -8 4 -16 -49 -19 -66 -4 -18 17 -33 17 -40 1 -3 -8
-1 -15 4 -15 5 0 7 -7 4 -15 -3 -8 -9 -14 -12 -13 -22 2 -33 -4 -31 -19 2 -10
0 -30 -4 -45 -7 -25 -9 -26 -44 -17 -21 6 -45 13 -53 16 -28 11 -40 11 -40 1
0 -6 -9 1 -21 16 -11 14 -27 26 -35 26 -8 0 -17 7 -20 15 -6 14 -8 14 -18 0
-6 -9 -20 -17 -31 -19 -12 -2 -22 -15 -27 -35 -5 -17 -13 -29 -18 -26 -6 4
-10 1 -10 -6 0 -8 -4 -8 -15 1 -8 7 -15 19 -15 26 0 8 -4 14 -9 14 -14 0 -32
-26 -23 -34 11 -12 9 -30 -5 -44 -16 -16 -8 -32 15 -32 9 0 30 -7 47 -16 19
-10 31 -11 33 -5 5 16 41 13 58 -3 14 -15 15 -36 3 -46 -11 -9 -22 -53 -11
-46 5 3 13 -1 16 -10 9 -24 9 -24 -28 -24 -25 0 -43 8 -64 29 -16 16 -48 34
-70 41 -32 8 -42 16 -44 33 -2 36 -3 41 -16 63 -7 13 -26 24 -47 28 -20 4 -33
11 -30 17 4 5 1 9 -4 9 -6 0 -11 -7 -11 -15 0 -8 -3 -14 -7 -13 -5 1 -24 -4
-43 -11 -19 -8 -38 -13 -43 -12 -4 0 -11 -9 -16 -22 -5 -12 -16 -29 -25 -36
-22 -19 -20 -48 4 -54 24 -6 35 -31 24 -54 -8 -21 -11 -29 -13 -43 0 -5 -8
-10 -16 -10 -9 0 -23 -15 -32 -34 -12 -26 -21 -33 -36 -30 -21 4 -48 24 -32
24 4 0 0 9 -10 20 -10 11 -23 16 -29 13 -14 -9 -40 -13 -32 -6 3 4 1 12 -5 19
-8 10 -16 10 -34 2 -14 -6 -22 -14 -20 -18 2 -4 -6 -6 -18 -5 -30 3 -48 -5
-40 -18 4 -6 -4 -8 -22 -3 -19 5 -33 2 -45 -9 -10 -9 -35 -18 -56 -21 -22 -3
-46 -13 -54 -23 -10 -13 -26 -18 -50 -17 -19 2 -41 -2 -47 -7 -7 -5 -19 -7
-27 -4 -18 7 -61 -56 -53 -77 3 -8 3 -17 -1 -20 -9 -10 -10 -70 -1 -82 16 -20
7 -94 -12 -105 -26 -13 -62 -12 -53 3 5 7 2 9 -8 5 -9 -3 -32 -2 -51 3 -27 6
-39 4 -48 -6 -6 -8 -19 -14 -28 -14 -10 0 -26 -6 -37 -14 -15 -12 -17 -18 -8
-33 6 -10 8 -27 4 -38 -7 -19 -8 -18 -20 8 -7 15 -21 27 -31 27 -15 0 -17 -6
-13 -29 5 -23 1 -35 -17 -53 -21 -21 -37 -24 -75 -19 -7 0 -26 15 -44 31 -33
31 -49 29 -73 -7 -5 -9 -16 -8 -44 4 -48 19 -100 19 -122 -1 -10 -9 -20 -14
-23 -11 -3 3 -11 -1 -18 -10 -14 -17 -35 -21 -24 -4 4 7 1 10 -7 7 -8 -3 -17
-22 -20 -42 -6 -37 -25 -60 -41 -50 -4 3 -12 -5 -17 -18 -5 -13 -21 -30 -36
-38 -24 -13 -28 -13 -39 3 -7 9 -16 14 -19 10 -4 -3 -7 1 -7 10 0 24 -20 31
-34 12 -10 -14 -17 -15 -33 -7 -11 6 -23 9 -26 6 -3 -3 -15 1 -26 8 -15 9 -24
10 -29 2 -8 -13 -92 -16 -107 -4 -6 5 -17 5 -25 0 -8 -5 -21 -5 -32 1 -10 5
-18 6 -18 2 0 -4 -4 -2 -9 5 -5 8 -28 16 -52 18 -24 2 -46 8 -49 12 -3 4 -27
8 -55 9 -27 1 -66 5 -85 9 -38 8 -56 8 -112 3 -21 -2 -38 -7 -38 -11 0 -4 -3
-7 -7 -6 -16 4 -53 -14 -48 -23 4 -5 1 -9 -5 -9 -6 0 -16 -12 -22 -26 -10 -20
-9 -27 2 -34 15 -9 22 -50 8 -50 -14 0 -9 -28 7 -34 8 -3 15 -12 15 -21 0 -8
7 -15 15 -15 8 0 15 -5 15 -11 0 -6 -9 -8 -21 -4 -14 5 -19 3 -15 -3 3 -6 -4
-12 -16 -14 -20 -3 -23 -9 -23 -53 -1 -37 -4 -50 -15 -50 -19 -1 -15 -46 5
-61 8 -6 12 -14 8 -17 -3 -4 -1 -13 5 -20 7 -8 9 -17 5 -20 -10 -10 18 -37 38
-37 11 0 19 -7 19 -15 0 -8 7 -15 15 -15 19 0 19 -14 0 -34 -14 -13 -14 -16 0
-23 17 -10 29 -53 14 -53 -5 0 -9 -8 -9 -18 0 -10 -3 -22 -7 -26 -4 -3 -8 -14
-9 -23 -2 -9 -10 -20 -19 -25 -8 -5 -13 -13 -10 -19 4 -5 -1 -9 -9 -9 -9 0
-16 6 -16 14 0 11 -8 12 -35 6 -33 -7 -102 5 -115 20 -3 3 -16 14 -29 23 -18
12 -28 14 -38 5 -15 -12 -17 -38 -3 -38 14 0 8 -23 -10 -37 -13 -10 -11 -13
13 -22 16 -6 36 -11 46 -11 19 0 22 -28 5 -52 -5 -7 -9 -25 -8 -40 1 -21 -6
-31 -27 -40 -15 -7 -25 -17 -21 -22 10 -16 10 -46 0 -46 -5 0 -7 -4 -3 -9 3
-5 1 -12 -5 -16 -13 -8 -5 -98 9 -103 6 -2 9 -8 5 -13 -3 -5 -1 -9 4 -9 4 0
19 -10 32 -23 16 -14 37 -22 59 -22 19 0 36 -6 39 -13 2 -7 -2 -11 -10 -10 -8
2 -12 -4 -10 -15 2 -9 -1 -17 -5 -16 -22 5 -43 -15 -43 -42 0 -16 4 -29 9 -29
5 0 17 -7 26 -16 13 -13 14 -19 4 -25 -21 -12 9 -40 37 -35 14 3 24 0 24 -7 0
-8 3 -8 12 1 9 9 16 8 29 -4 25 -22 49 -11 49 23 0 15 7 37 15 47 12 16 19 17
37 9 13 -6 37 -9 55 -7 27 3 30 1 26 -16 -4 -17 0 -20 26 -20 24 0 31 -4 31
-20 0 -11 5 -20 10 -20 6 0 10 -6 10 -13 0 -8 7 -14 15 -14 10 0 15 10 15 29
0 15 -4 28 -9 28 -14 0 -21 44 -9 51 7 5 18 -1 26 -12 8 -11 25 -24 39 -30 19
-7 22 -13 15 -26 -7 -11 -6 -23 2 -35 9 -15 8 -21 -4 -28 -8 -5 -17 -6 -20 -2
-3 4 -20 9 -39 11 -27 2 -33 0 -28 -13 4 -9 -1 -17 -14 -21 -10 -4 -19 -13
-19 -21 0 -8 5 -12 10 -9 19 12 9 -10 -15 -34 -16 -14 -33 -21 -45 -18 -10 3
-20 1 -22 -3 -2 -4 -25 -10 -51 -13 -27 -4 -45 -2 -42 3 8 12 -28 30 -59 30
-27 0 -28 1 -30 70 -1 31 -5 35 -36 41 -20 4 -36 4 -38 -2 -2 -5 -12 -9 -23
-9 -25 0 -25 -30 1 -37 10 -3 26 -16 35 -29 15 -23 14 -24 -5 -24 -11 0 -20
-5 -20 -11 0 -14 25 -39 39 -39 6 0 11 -7 11 -16 0 -9 10 -25 23 -36 15 -13
18 -21 10 -24 -7 -3 -13 -10 -13 -16 0 -5 -9 -23 -21 -39 -11 -16 -17 -29 -12
-29 4 0 9 -12 10 -26 2 -39 20 -53 32 -23 8 21 10 22 16 7 8 -19 35 -25 35 -8
0 6 15 9 34 7 34 -4 35 -3 32 28 -2 18 -6 37 -9 42 -11 18 56 23 75 5 14 -11
21 -12 32 -3 11 9 15 8 20 -4 4 -11 11 -13 23 -7 19 10 68 -10 56 -22 -4 -4 3
-9 15 -13 18 -4 22 -12 20 -39 -1 -19 -6 -34 -11 -34 -5 0 -4 -7 3 -15 9 -11
16 -12 26 -4 7 6 17 9 21 6 8 -5 35 18 28 25 -2 2 4 4 13 5 18 2 64 9 72 12 3
1 -1 5 -8 10 -11 7 -11 9 1 14 8 3 24 -3 36 -14 20 -19 21 -19 30 0 6 10 7 21
4 25 -3 3 8 11 25 17 18 6 32 15 32 19 0 5 9 11 19 15 20 6 18 45 -3 45 -6 0
-3 7 7 15 15 10 25 11 43 3 13 -6 24 -15 24 -20 0 -5 8 -7 18 -4 16 5 18 1 16
-29 -2 -25 1 -35 11 -35 13 0 19 11 16 32 -1 8 20 5 36 -5 7 -4 16 0 22 10 9
17 10 17 16 1 4 -10 14 -18 21 -18 19 0 12 -69 -7 -81 -11 -6 -10 -9 3 -14 15
-6 15 -36 0 -33 -27 3 -31 -3 -20 -27 7 -16 15 -22 22 -16 14 10 46 10 46 0 0
-4 9 -10 20 -14 16 -5 18 -9 8 -25 -14 -22 -4 -37 14 -23 20 16 146 14 152 -2
3 -8 -2 -19 -9 -25 -8 -7 -12 -16 -9 -21 3 -5 0 -17 -5 -27 -6 -12 -7 -22 -1
-28 6 -6 6 -22 1 -42 -6 -20 -6 -34 0 -38 5 -3 7 -10 4 -15 -5 -8 16 -14 38
-10 4 0 7 -3 7 -8 0 -5 9 -7 20 -4 12 3 20 0 20 -6 0 -7 4 -10 9 -7 5 3 11 -1
15 -9 4 -11 11 -13 31 -5 30 11 32 2 10 -41 -9 -16 -13 -33 -11 -38 3 -5 -3
-16 -14 -26 -11 -10 -17 -21 -14 -26 2 -5 -8 -22 -25 -39 -19 -20 -27 -38 -24
-50 4 -13 0 -20 -10 -20 -15 0 -32 -26 -28 -47 1 -6 -7 -11 -18 -10 -11 0 -19
4 -19 7 1 17 -4 18 -20 2 -10 -10 -21 -26 -25 -35 -4 -10 -15 -16 -29 -14 -15
1 -23 -3 -24 -13 0 -8 -4 -33 -8 -55 -4 -22 -6 -41 -4 -43 1 -2 -5 -8 -14 -13
-10 -6 -18 -14 -18 -19 0 -4 8 -7 18 -5 9 2 17 4 17 5 0 1 10 3 22 4 12 1 21
-2 20 -7 -1 -6 13 -20 31 -33 42 -29 118 -30 116 -1 -1 9 4 17 12 17 8 0 14 7
14 15 0 12 4 13 19 6 23 -13 31 -5 31 30 0 15 7 29 16 33 8 3 12 10 9 16 -3 5
-2 10 2 10 5 0 10 11 11 24 2 34 20 76 32 76 6 0 6 9 0 26 -12 31 4 58 31 51
11 -3 19 2 23 15 3 13 10 18 19 15 8 -3 25 0 38 7 38 19 84 15 84 -8 0 -10 8
-20 17 -22 21 -3 33 12 18 21 -6 4 -8 11 -4 16 4 6 11 6 20 -2 9 -7 14 -8 14
-1 0 6 9 10 20 9 11 -1 20 -5 20 -9 0 -4 6 -8 14 -8 8 0 16 -7 20 -15 3 -10
16 -15 34 -13 15 1 33 -2 40 -6 13 -8 35 11 40 34 2 8 10 20 18 26 7 6 14 16
14 22 0 19 26 20 38 1 9 -15 17 -17 30 -10 9 5 22 9 27 10 6 1 10 4 11 9 3 24
19 42 39 42 27 0 41 36 19 48 -9 5 -12 15 -8 25 3 9 11 14 17 10 6 -4 7 -1 3
6 -5 7 -14 10 -21 7 -19 -7 -26 4 -12 19 7 7 26 10 47 8 57 -7 62 -10 50 -33
-9 -17 -7 -20 15 -26 14 -3 31 -1 39 5 11 9 15 9 19 -1 4 -8 8 -9 14 -3 13 16
36 17 30 1 -7 -17 23 -45 41 -39 6 3 12 0 12 -6 0 -7 8 -7 25 1 20 9 22 14 13
25 -6 8 -17 12 -24 9 -15 -6 -12 20 4 36 9 9 12 9 12 -1 0 -10 3 -11 13 -2 8
6 22 12 33 14 33 6 94 36 95 46 4 33 29 101 37 100 24 -4 42 3 40 14 -2 6 2
13 7 15 6 1 10 -2 10 -7 0 -18 17 -26 63 -27 26 -1 54 -5 63 -8 24 -11 43 68
25 103 -12 24 -13 74 -3 141 2 14 1 32 -3 40 -4 8 -18 40 -30 70 -13 30 -30
71 -39 90 -21 45 -23 229 -3 253 7 8 15 49 17 90 2 40 9 86 15 101 8 22 6 31
-10 48 -11 12 -20 27 -21 32 -2 36 -11 62 -25 72 -13 11 -21 38 -28 104 -2 14
-8 45 -15 69 -16 56 -16 143 0 173 7 13 14 45 16 73 1 27 7 51 13 53 5 2 8 8
5 13 -7 10 52 99 65 99 5 0 12 16 16 35 3 19 10 38 15 41 5 3 7 9 4 14 -3 5 1
26 10 46 8 20 12 41 8 47 -3 6 -1 7 5 3 7 -4 16 2 23 16 11 25 90 84 143 106
163 70 249 60 251 -28 2 -64 27 -75 125 -54 13 3 35 16 48 29 19 20 21 27 11
43 -12 20 1 42 61 100 14 13 24 28 23 33 -2 5 3 8 10 6 6 -1 12 7 12 18 1 11
10 40 22 65 12 25 26 63 32 86 11 41 48 94 67 94 5 0 16 6 23 13 6 6 16 13 22
13 5 1 10 2 12 4 26 21 235 9 251 -14 8 -12 16 -11 45 3 20 9 38 19 41 22 3 4
33 16 67 27 66 22 135 52 143 62 8 11 54 34 63 32 4 -1 7 3 7 9 0 5 5 7 10 4
6 -3 10 -1 10 6 0 7 3 9 7 6 3 -4 14 0 23 8 10 9 21 15 26 14 20 -5 62 21 67
40 3 12 1 19 -4 15 -11 -6 0 25 15 45 9 12 8 13 -4 6 -8 -4 -4 2 8 15 17 16
21 25 12 30 -9 6 -10 25 -4 71 10 87 10 90 1 122 -8 25 -35 34 -30 10 1 -5 -7
-9 -17 -10 -16 -1 -18 2 -10 22 5 12 7 25 5 27 -5 4 99 113 134 141 12 10 37
18 56 19 19 1 33 4 31 7 -6 10 13 51 24 51 5 0 10 -13 10 -30 0 -16 5 -30 11
-30 6 0 9 16 7 38 -3 32 1 40 27 57 17 10 32 20 35 20 16 4 106 50 108 57 2 5
7 6 12 3 5 -3 15 2 24 10 8 9 19 16 23 16 27 0 53 14 58 30 4 10 9 18 13 17 4
-1 27 8 52 19 25 11 53 23 63 27 10 3 15 10 12 16 -3 5 0 7 8 4 16 -6 50 34
41 48 -3 5 -2 7 3 6 11 -3 73 30 74 40 3 30 11 47 33 69 14 14 26 33 26 42 0
18 64 91 80 91 5 0 16 13 24 28 15 28 126 120 126 105 0 -4 5 0 10 9 6 9 32
24 59 33 27 9 55 22 61 30 6 8 25 17 41 20 16 4 29 11 29 16 0 6 4 8 8 5 5 -3
19 4 30 15 12 11 22 17 22 15 0 -15 65 33 69 50 1 10 9 26 17 35 8 9 12 18 10
20 -3 3 8 13 23 23 15 11 36 32 47 47 10 15 20 26 23 23 3 -2 17 8 33 23 19
18 28 22 28 12 0 -12 2 -12 9 0 5 7 7 21 4 30 -2 9 10 31 27 49 16 18 30 38
30 43 0 5 16 25 35 44 20 18 42 49 51 67 26 56 41 78 47 71 4 -3 7 1 7 11 0 9
5 14 10 11 6 -3 10 0 10 7 0 7 10 23 23 34 12 12 30 36 40 54 19 31 19 31 -2
37 -20 5 -23 9 -25 36 -1 6 -5 15 -11 19 -16 12 -35 9 -32 -4z"/>
</g>
</svg>
