<?xml version="1.0" standalone="no"?>
<!DOCTYPE svg PUBLIC "-//W3C//DTD SVG 20010904//EN"
 "http://www.w3.org/TR/2001/REC-SVG-20010904/DTD/svg10.dtd">
<svg version="1.0" xmlns="http://www.w3.org/2000/svg"
 width="944.000000pt" height="944.000000pt" viewBox="0 0 944.000000 944.000000"
 preserveAspectRatio="xMidYMid meet">
<metadata>
Created by potrace 1.14, written by Peter Selinger 2001-2017
</metadata>
<g transform="translate(0.000000,944.000000) scale(0.100000,-0.100000)"
fill="#000000" stroke="none">
<path d="M6677 8251 c-39 -28 -66 -41 -87 -41 -11 0 -20 -7 -20 -16 0 -8 -4
-12 -10 -9 -6 4 -10 -22 -10 -70 0 -62 -4 -82 -20 -102 -11 -14 -20 -32 -20
-40 0 -8 -4 -11 -10 -8 -5 3 -10 -3 -10 -14 0 -12 -4 -21 -10 -21 -5 0 -10 -9
-10 -20 0 -11 -7 -20 -16 -20 -8 0 -12 -4 -9 -10 3 -5 1 -10 -4 -10 -7 0 -11
-33 -11 -89 l0 -89 -37 -28 c-21 -16 -50 -41 -65 -55 -15 -15 -30 -24 -33 -21
-3 3 -5 -2 -5 -11 0 -10 -4 -17 -10 -17 -5 0 -10 -13 -10 -28 0 -37 -44 -62
-121 -69 -33 -3 -62 -10 -65 -14 -3 -5 -13 -9 -21 -9 -21 0 -92 -77 -99 -107
-4 -13 -10 -23 -15 -23 -5 0 -9 -8 -9 -19 0 -24 -25 -73 -33 -64 -4 3 -7 -6
-7 -21 0 -16 -4 -25 -10 -21 -6 3 -10 -4 -10 -17 0 -13 -9 -30 -20 -38 -11 -8
-20 -20 -20 -28 0 -7 -4 -10 -10 -7 -5 3 -10 -1 -10 -9 0 -25 -95 -108 -141
-124 -23 -7 -49 -20 -56 -28 -10 -10 -41 -14 -109 -14 -102 0 -97 -2 -170 68
-24 23 -44 39 -44 35 0 -4 -7 2 -15 13 -8 11 -14 41 -15 72 0 28 -4 52 -10 52
-6 0 -10 27 -10 61 0 33 -4 58 -9 55 -5 -3 -14 8 -21 24 -7 17 -16 30 -21 30
-5 0 -9 6 -9 14 0 7 -28 26 -62 42 -59 26 -90 36 -160 51 -31 6 -119 -17 -112
-29 3 -4 -1 -8 -8 -8 -8 0 -19 -5 -26 -12 -34 -34 -162 -52 -162 -22 0 8 -4
12 -10 9 -5 -3 -10 3 -10 15 0 12 -4 18 -10 15 -5 -3 -10 2 -10 11 0 10 -3 15
-6 11 -9 -9 -34 19 -34 37 0 9 -4 16 -10 16 -5 0 -10 11 -10 25 0 14 -4 25
-10 25 -5 0 -10 6 -10 13 0 6 -16 27 -35 45 -33 30 -41 32 -105 32 -38 0 -72
-4 -75 -10 -3 -5 -17 -10 -31 -10 -13 0 -24 -4 -24 -9 0 -5 -31 -19 -70 -30
-67 -21 -110 -51 -110 -78 0 -7 -4 -13 -10 -13 -5 0 -10 -6 -10 -13 0 -7 -9
-19 -20 -27 -11 -8 -20 -19 -20 -25 0 -16 -50 -66 -61 -60 -5 4 -9 1 -9 -6 0
-7 -12 -9 -37 -5 -21 4 -74 11 -118 16 -44 5 -91 11 -104 14 -13 3 -47 -4 -75
-15 -28 -12 -61 -25 -74 -30 -13 -5 -31 -9 -40 -9 -10 0 -26 -13 -35 -30 -10
-16 -22 -30 -28 -30 -5 0 -9 -7 -9 -15 0 -8 -4 -15 -10 -15 -5 0 -10 -5 -10
-11 0 -14 -26 -39 -40 -39 -6 0 -20 -9 -32 -20 -34 -32 -77 -24 -188 35 -70
37 -94 40 -139 19 -40 -19 -44 -23 -86 -79 -38 -52 -51 -65 -64 -65 -6 0 -11
-4 -11 -9 0 -5 -15 -12 -32 -16 -18 -4 -71 -26 -118 -49 -47 -24 -93 -42 -103
-40 -9 1 -17 -2 -17 -7 0 -17 -115 -2 -162 22 -24 12 -115 11 -123 -1 -3 -5
-17 -10 -30 -10 -13 0 -28 -6 -32 -13 -4 -7 -22 -24 -40 -38 -30 -25 -36 -26
-126 -22 -80 4 -102 1 -139 -15 -52 -24 -98 -65 -98 -87 0 -9 -7 -18 -15 -21
-8 -3 -17 -22 -20 -42 -9 -55 -32 -94 -69 -119 -31 -20 -42 -21 -147 -16 -111
6 -183 7 -339 5 -41 -1 -97 -1 -125 0 -59 1 -73 -2 -108 -25 -15 -9 -43 -17
-63 -17 -44 0 -102 -19 -125 -40 -48 -45 -60 -50 -119 -50 -32 0 -62 5 -65 10
-3 6 -17 10 -31 10 -14 0 -34 5 -45 11 -49 26 -123 -22 -132 -86 -4 -22 -11
-41 -17 -43 -5 -2 -10 -25 -10 -50 -1 -60 -15 -78 -76 -93 -50 -13 -106 -59
-119 -99 -3 -11 -11 -20 -16 -20 -5 0 -9 -9 -9 -19 0 -11 -4 -21 -9 -23 -5 -1
-11 -25 -12 -53 -2 -27 -11 -65 -20 -84 -13 -27 -14 -40 -5 -62 6 -16 14 -29
18 -29 4 0 8 -6 8 -13 0 -7 14 -26 30 -42 17 -16 30 -38 30 -49 0 -10 -3 -16
-6 -13 -4 4 -19 -2 -34 -13 -15 -11 -30 -17 -34 -13 -3 3 -6 1 -6 -6 0 -7 -4
-9 -10 -6 -5 3 -10 -3 -10 -14 0 -12 -4 -21 -10 -21 -6 0 -10 -60 -10 -159 0
-88 -4 -162 -9 -165 -12 -8 -14 -183 -1 -191 6 -3 10 -45 10 -98 l1 -92 37
-32 c63 -55 99 -83 110 -83 5 0 12 -6 15 -13 7 -18 -2 -87 -14 -109 -5 -9 -9
-68 -9 -132 0 -70 -4 -117 -11 -121 -26 -17 -38 -69 -45 -200 l-6 -100 -39
-36 c-27 -25 -39 -45 -39 -63 0 -17 4 -25 11 -20 12 7 7 -175 -7 -250 -5 -28
-3 -37 5 -32 7 5 11 -5 11 -29 0 -22 4 -34 10 -30 5 3 10 -2 10 -12 0 -11 4
-23 9 -28 5 -6 11 -21 13 -35 3 -23 7 -25 47 -23 24 1 51 9 60 18 10 8 21 12
24 8 4 -3 7 -1 7 5 0 7 3 11 8 11 17 -3 35 2 29 8 -7 6 37 33 55 33 5 0 19 11
32 25 13 14 28 25 35 25 6 0 10 3 9 8 -5 20 16 51 47 68 19 10 35 22 35 26 0
5 6 8 13 8 18 0 75 28 82 41 4 5 13 9 21 9 8 0 24 9 36 20 12 11 32 20 45 20
13 0 23 4 23 9 0 8 37 24 53 22 4 -1 7 3 7 9 0 5 9 10 19 10 11 0 23 5 26 10
3 6 15 10 26 10 10 0 19 3 19 8 0 18 64 33 175 42 66 6 132 10 145 9 47 -3
122 32 168 77 24 24 50 44 58 44 8 0 14 7 14 15 0 8 5 16 10 16 6 1 14 2 20 3
14 2 64 43 120 99 26 26 53 47 59 47 7 0 10 4 7 9 -4 5 7 15 24 23 16 7 30 19
30 25 0 7 7 13 15 13 8 0 15 4 15 8 0 5 11 15 25 22 13 7 22 17 19 22 -3 4 0
8 7 8 7 0 27 14 44 30 30 29 65 33 65 9 0 -5 7 -9 16 -9 9 0 42 -12 73 -26 54
-24 65 -25 187 -21 126 4 284 33 308 57 13 13 36 13 36 -1 0 -5 13 -24 30 -42
16 -18 30 -37 30 -44 0 -6 9 -15 20 -18 11 -3 20 -11 20 -16 0 -5 9 -9 20 -9
11 0 20 -5 20 -11 0 -5 4 -8 9 -5 16 10 20 -23 5 -39 -12 -12 -15 -42 -13
-167 1 -108 -1 -153 -9 -156 -15 -5 -16 -122 -2 -122 6 0 10 -11 10 -24 0 -14
-4 -28 -10 -31 -5 -3 -10 -14 -10 -23 0 -10 -9 -23 -20 -30 -11 -7 -20 -20
-20 -30 0 -16 -41 -62 -55 -62 -3 0 -11 0 -19 0 -7 0 -24 -22 -38 -49 -23 -48
-24 -50 -6 -73 19 -25 24 -93 8 -103 -13 -8 -13 -52 0 -60 6 -3 10 -21 10 -40
0 -19 4 -37 10 -40 5 -3 10 -13 10 -21 0 -17 23 -44 39 -44 5 0 17 -10 25 -22
18 -26 23 -188 6 -188 -5 0 -10 -7 -10 -15 0 -8 -4 -15 -9 -15 -9 0 -24 -48
-25 -80 -1 -8 7 -30 17 -48 9 -18 17 -41 17 -52 0 -11 5 -20 10 -20 6 0 10
-13 10 -30 0 -16 4 -30 9 -30 17 0 51 -71 51 -104 0 -19 7 -46 14 -62 8 -15
13 -31 10 -36 -16 -25 -12 -56 11 -80 20 -22 24 -35 22 -75 -3 -44 -31 -113
-49 -121 -5 -2 -8 -17 -8 -33 0 -16 -4 -29 -10 -29 -5 0 -10 -16 -10 -35 0
-19 5 -35 10 -35 6 0 10 -7 10 -15 0 -8 -4 -15 -10 -15 -5 0 -10 -16 -10 -35
0 -27 6 -38 28 -52 15 -10 34 -25 43 -35 26 -28 56 -34 132 -26 116 12 210
-13 207 -55 -5 -52 0 -67 20 -67 11 0 29 -8 41 -18 11 -9 30 -25 41 -34 20
-17 33 -22 51 -19 4 0 7 -3 7 -9 0 -5 8 -14 19 -19 14 -8 31 -5 67 13 27 13
59 26 72 30 12 4 22 11 22 15 0 22 52 -6 85 -45 21 -24 46 -44 57 -44 10 0 29
-9 41 -21 12 -11 33 -26 47 -31 15 -6 20 -12 13 -15 -7 -3 -13 -16 -13 -29 0
-14 -4 -33 -10 -43 -13 -26 13 -58 52 -64 74 -11 131 -43 161 -90 18 -28 18
-28 -15 -70 -18 -23 -36 -45 -41 -48 -10 -7 -6 -30 9 -46 7 -7 47 -15 90 -17
68 -5 81 -9 100 -31 26 -30 83 -50 136 -47 20 2 39 -2 43 -8 7 -12 85 -14 85
-1 0 4 15 12 33 17 29 9 32 13 35 54 2 25 7 49 13 54 25 26 -13 86 -54 86 -11
0 -37 5 -57 11 -48 15 -54 44 -29 140 10 39 15 83 12 103 -5 33 11 66 33 66 4
0 17 11 30 25 13 14 34 25 48 25 14 0 35 8 47 18 52 43 69 62 69 76 0 8 4 16
9 18 5 2 11 27 14 57 3 29 8 55 11 58 2 3 36 -2 75 -11 38 -9 84 -16 100 -16
17 0 31 -4 31 -10 0 -5 19 -10 43 -10 55 0 94 -19 102 -48 4 -17 12 -22 40
-22 19 0 35 -3 35 -8 0 -13 116 -45 139 -37 49 15 91 73 91 125 0 18 4 29 10
25 6 -3 10 -1 10 4 0 6 21 11 50 11 30 0 50 4 50 11 0 6 9 9 20 6 23 -6 60 23
60 47 0 9 5 16 10 16 6 0 10 6 10 14 0 8 4 16 10 18 5 1 11 33 12 70 2 65 -7
91 -32 94 -6 1 -15 2 -21 3 -6 0 -10 13 -9 29 4 52 0 59 -40 72 -28 9 -40 19
-40 32 0 23 -23 48 -44 48 -8 0 -22 7 -31 16 -11 11 -29 15 -65 12 l-50 -3 0
37 c0 20 5 49 10 65 13 35 98 112 125 114 11 0 29 3 40 5 11 2 38 6 60 10 22
3 49 9 60 14 26 12 68 27 78 28 28 3 37 34 37 123 0 85 -2 93 -25 115 -14 13
-41 26 -60 30 -19 3 -35 10 -35 15 0 5 -13 9 -30 9 -21 0 -30 5 -30 16 0 8 -4
12 -10 9 -6 -3 -10 5 -10 18 0 22 -4 25 -31 23 -17 -1 -37 3 -44 10 -7 7 -15
10 -19 7 -3 -4 -6 -1 -6 6 0 7 -4 10 -9 7 -5 -3 -11 1 -15 9 -3 8 -12 15 -21
15 -16 0 -18 19 -6 60 4 14 3 33 -3 42 -8 13 -7 24 2 38 13 21 17 94 4 86 -4
-2 -16 2 -27 10 -18 14 -18 14 2 34 12 10 24 28 28 40 8 24 54 27 88 6 12 -8
34 -17 48 -19 38 -7 132 -48 145 -64 6 -7 16 -13 23 -13 6 0 11 -5 11 -10 0
-6 16 -18 35 -27 33 -16 37 -16 70 0 19 9 35 21 35 27 0 5 13 10 29 10 21 0
32 6 36 20 3 11 13 20 21 20 8 0 14 7 14 15 0 8 4 15 9 15 9 0 24 33 26 55 0
12 9 12 53 1 27 -6 32 -12 32 -36 0 -26 6 -31 68 -54 38 -15 77 -24 86 -20 11
4 24 -1 37 -15 11 -11 26 -21 33 -21 13 0 56 -74 56 -96 0 -17 74 -44 119 -44
37 0 112 34 131 60 12 16 40 19 40 4 0 -8 -4 -12 -10 -9 -6 4 -10 -10 -10 -34
0 -23 -4 -41 -10 -41 -5 0 -10 -8 -10 -18 0 -11 -9 -27 -20 -37 -29 -26 -25
-52 14 -91 30 -30 40 -34 89 -34 31 0 57 5 59 11 2 6 19 9 38 7 30 -3 32 -5
19 -18 -18 -20 -18 -39 4 -70 9 -13 17 -30 17 -36 0 -6 12 -19 26 -29 15 -10
23 -22 20 -31 -3 -8 0 -14 6 -14 6 0 9 -3 5 -6 -3 -4 0 -21 7 -38 7 -17 13
-51 15 -75 1 -25 5 -49 9 -55 4 -6 7 -34 7 -63 0 -47 3 -55 38 -88 30 -28 45
-35 78 -35 24 0 47 6 53 14 20 26 106 43 166 33 108 -17 120 -15 120 27 0 19
-4 36 -9 38 -10 3 -14 32 -12 91 1 34 4 37 29 37 15 0 32 -4 38 -9 5 -6 22
-12 38 -15 15 -3 39 -12 52 -21 13 -8 39 -15 58 -15 25 0 38 -6 46 -20 6 -11
8 -20 5 -20 -4 0 0 -7 9 -15 8 -9 33 -15 60 -15 36 0 46 4 51 20 3 11 11 20
16 20 5 0 9 7 9 15 0 11 12 15 45 15 25 0 45 -4 45 -10 0 -6 29 -10 68 -10 39
0 73 -5 80 -12 15 -15 62 8 62 32 0 9 6 22 13 29 10 11 10 14 0 18 -16 6 -17
116 -2 145 8 15 8 26 -1 42 -6 12 -10 39 -8 60 3 38 8 42 80 78 10 4 29 8 43
8 14 0 25 5 25 10 0 6 9 10 20 10 10 0 23 7 28 16 8 14 14 15 48 4 21 -6 51
-15 66 -20 16 -5 30 -4 34 1 3 5 13 9 23 9 25 0 71 62 71 94 0 29 -76 111
-118 127 -14 6 -22 13 -17 17 34 24 63 134 43 159 -6 7 -7 13 -2 13 5 0 2 4
-6 10 -12 7 -10 12 9 29 13 12 30 21 37 21 29 0 65 25 71 49 3 14 10 29 16 32
5 4 12 43 14 87 l5 81 -51 31 c-28 18 -51 36 -51 41 0 5 -6 8 -12 6 -8 -1 -14
10 -16 26 -3 25 0 27 30 27 28 0 42 9 87 60 29 33 62 62 72 65 11 4 19 15 19
26 0 10 5 19 10 19 6 0 10 7 10 15 0 8 9 15 20 15 11 0 20 7 20 16 0 8 5 12
10 9 6 -3 10 1 10 10 0 9 5 13 10 10 6 -3 10 -1 10 6 0 7 3 10 6 6 10 -10 34
20 34 43 0 13 11 27 30 38 16 9 30 21 30 25 0 5 5 5 10 2 6 -3 10 0 10 7 0 8
13 25 30 38 16 14 29 34 30 46 0 11 8 29 18 40 9 10 18 28 20 39 2 11 9 34 17
50 9 22 11 49 6 97 -4 37 -9 69 -11 70 -38 24 -52 28 -70 18 -24 -13 -60 -13
-60 0 0 19 -78 11 -92 -8 -7 -11 -24 -24 -36 -31 -22 -12 -57 -39 -87 -68 -7
-7 -14 -10 -17 -8 -2 2 -5 -7 -6 -21 -2 -32 -30 -74 -49 -74 -14 0 -85 -48
-91 -62 -14 -30 -45 -51 -74 -49 -124 8 -200 20 -194 30 7 11 -36 11 -57 -1
-44 -23 -71 -60 -70 -96 1 -34 -18 -68 -31 -55 -3 4 -6 1 -6 -5 0 -25 -19 -11
-31 23 -13 34 -14 35 -70 35 -32 0 -61 5 -64 10 -3 6 -15 10 -26 10 -11 0 -17
5 -14 10 3 6 -1 10 -9 10 -9 0 -18 11 -22 24 -10 41 -44 63 -106 70 -44 4 -61
2 -73 -10 -8 -9 -13 -20 -10 -25 4 -5 1 -9 -6 -9 -10 0 -10 -3 -1 -12 26 -26
12 -38 -22 -17 -37 22 -63 17 -118 -23 -23 -16 -32 -18 -38 -8 -6 10 -9 9 -13
-1 -4 -9 -6 -7 -6 5 -1 11 -4 17 -7 14 -3 -4 -25 1 -50 9 -37 13 -44 19 -44
42 0 15 -5 32 -11 38 -12 12 -24 83 -20 121 1 14 41 17 41 3 0 -13 45 -22 123
-26 41 -3 67 0 67 6 0 6 5 7 10 4 6 -3 10 0 10 8 0 7 8 22 18 33 32 36 47 58
35 50 -8 -4 -13 -1 -13 8 0 9 -5 16 -11 16 -6 0 -4 7 5 15 8 8 32 15 55 15 37
0 43 3 55 33 8 17 20 59 27 92 6 33 19 71 27 84 l15 24 18 -24 c10 -13 16 -25
14 -28 -6 -5 22 -31 34 -31 6 0 11 -3 11 -8 0 -13 124 -44 145 -36 36 14 55
38 55 71 0 22 6 36 20 43 11 6 20 17 20 25 0 17 20 57 34 66 4 4 3 10 -3 13
-7 4 -11 39 -11 87 0 46 -4 79 -10 79 -5 0 -10 16 -10 35 0 19 5 35 10 35 6 0
10 9 10 20 0 15 7 20 26 20 14 0 23 4 20 9 -3 5 1 12 10 15 22 8 143 -4 150
-15 8 -13 67 -10 84 4 15 12 46 55 65 92 7 13 21 20 40 19 57 -1 100 -9 107
-18 4 -6 25 10 47 33 38 40 41 48 41 100 1 52 19 99 33 84 4 -3 7 1 7 11 0 40
26 49 123 43 94 -6 143 -13 161 -24 18 -12 108 -14 101 -3 -3 5 1 10 9 10 9 0
16 5 16 10 0 6 7 10 15 10 35 0 64 23 67 54 3 29 6 31 45 34 23 2 47 10 53 18
16 19 99 18 124 -1 11 -8 39 -15 62 -15 77 0 106 76 43 112 -28 16 -29 20 -29
87 l0 70 -40 17 c-39 18 -40 19 -40 70 0 29 5 56 10 59 6 3 10 15 10 27 0 24
38 80 50 73 11 -7 49 32 59 60 5 11 8 69 9 128 1 98 -1 110 -20 129 -15 15
-35 22 -61 22 -26 1 -43 7 -52 20 -16 21 -65 15 -65 -8 0 -18 -22 -26 -52 -21
-13 3 -65 8 -115 11 -72 5 -94 10 -98 23 -3 9 -29 27 -58 41 -29 14 -56 30
-60 37 -4 7 -15 13 -23 13 -13 0 -36 10 -74 32 -55 31 -84 39 -124 32 -22 -5
-52 -7 -66 -6 -14 1 -128 4 -255 8 -126 3 -246 10 -265 16 -19 6 -36 11 -37
10 -2 -1 -19 6 -40 15 -21 8 -49 17 -62 20 -14 2 -46 15 -71 27 -260 133 -266
136 -360 134 -62 -2 -84 2 -91 13 -5 7 -9 10 -9 6 0 -4 -9 -3 -21 3 -11 7 -32
14 -47 16 -14 3 -29 7 -34 10 -12 7 -10 94 2 94 6 0 10 6 10 13 0 6 14 26 30
44 25 27 30 40 30 83 0 27 -4 59 -10 70 -5 11 -14 29 -20 40 -13 25 -13 73 0
65 6 -3 8 38 7 110 -1 73 -6 118 -13 123 -6 4 -15 22 -19 40 -3 17 -11 32 -16
32 -5 0 -9 11 -9 24 0 14 -5 37 -11 53 -6 15 -11 57 -13 93 -1 36 -4 70 -8 75
-3 6 -11 36 -18 68 -7 31 -17 57 -22 57 -4 0 -8 7 -8 15 0 7 -6 18 -13 22 -8
4 -22 21 -33 38 -48 76 -48 76 -166 74 -83 -1 -113 -5 -131 -18z"/>
</g>
</svg>
