<?xml version="1.0" standalone="no"?>
<!DOCTYPE svg PUBLIC "-//W3C//DTD SVG 20010904//EN"
 "http://www.w3.org/TR/2001/REC-SVG-20010904/DTD/svg10.dtd">
<svg version="1.0" xmlns="http://www.w3.org/2000/svg"
 width="1300.000000pt" height="1300.000000pt" viewBox="0 0 1300.000000 1300.000000"
 preserveAspectRatio="xMidYMid meet">
<metadata>
Created by potrace 1.14, written by Peter Selinger 2001-2017
</metadata>
<g transform="translate(0.000000,1300.000000) scale(0.100000,-0.100000)"
fill="#000000" stroke="none">
<path d="M6297 12994 c-1 -1 -60 -4 -132 -8 -71 -4 -146 -9 -165 -11 -19 -2
-67 -6 -106 -10 -39 -3 -80 -7 -90 -9 -11 -2 -44 -7 -75 -10 -31 -4 -67 -9
-80 -11 -13 -3 -42 -7 -64 -10 -44 -5 -76 -11 -150 -25 -27 -5 -68 -13 -89
-16 -22 -3 -50 -10 -63 -15 -13 -5 -27 -8 -31 -7 -17 5 -441 -105 -512 -133
-14 -5 -34 -11 -45 -13 -20 -4 -211 -69 -250 -85 -11 -4 -81 -32 -155 -61 -74
-29 -139 -57 -144 -61 -6 -5 -16 -9 -22 -9 -40 0 -467 -219 -709 -363 -464
-277 -856 -591 -1257 -1005 -69 -73 -144 -153 -165 -179 -21 -26 -46 -55 -55
-65 -31 -32 -242 -301 -305 -388 -67 -95 -240 -356 -269 -409 -11 -18 -23 -41
-29 -50 -126 -204 -306 -577 -422 -871 -114 -289 -248 -751 -297 -1025 -8 -41
-36 -204 -42 -237 -2 -16 -6 -40 -9 -55 -5 -36 -23 -182 -30 -258 -3 -33 -8
-78 -10 -100 -11 -102 -19 -338 -19 -515 1 -186 11 -477 18 -489 2 -3 7 -46
10 -95 4 -49 9 -92 10 -95 2 -3 7 -35 10 -71 4 -36 9 -76 11 -90 2 -14 6 -41
9 -60 5 -34 29 -174 41 -235 15 -83 58 -266 100 -425 50 -195 190 -597 260
-755 130 -290 198 -427 298 -605 190 -335 357 -580 602 -880 145 -177 194
-230 399 -435 158 -157 268 -259 356 -331 19 -16 37 -31 40 -34 18 -19 217
-172 311 -240 469 -337 977 -605 1504 -792 254 -90 510 -163 765 -218 163 -35
336 -64 495 -85 28 -3 61 -8 75 -10 314 -48 1074 -49 1370 0 14 2 50 7 80 10
30 3 66 8 80 10 14 2 45 7 70 10 25 3 92 15 150 26 58 11 121 22 140 25 78 13
504 125 630 167 548 181 1013 405 1485 716 72 47 135 89 140 94 6 4 51 37 100
74 99 72 207 155 215 164 3 3 34 29 70 58 204 167 547 505 715 707 125 148
159 189 183 222 9 13 47 63 83 111 227 300 484 741 643 1101 26 58 53 119 60
135 30 65 38 86 95 240 132 358 223 695 291 1080 11 61 22 133 25 160 3 28 8
57 10 65 2 8 7 47 11 85 3 39 8 84 10 100 16 153 19 264 19 610 0 350 -6 531
-19 600 -2 11 -7 52 -10 90 -4 39 -9 77 -11 85 -2 8 -7 42 -10 75 -4 32 -8 62
-10 65 -2 3 -6 29 -10 59 -4 30 -9 63 -11 75 -19 100 -29 149 -56 266 -121
538 -347 1128 -602 1578 -24 42 -54 95 -66 117 -36 63 -51 88 -110 181 -30 47
-60 94 -65 103 -6 9 -19 30 -30 46 -28 43 -227 319 -234 325 -3 3 -42 50 -86
105 -69 87 -92 115 -140 169 -171 194 -431 452 -600 596 -27 23 -61 52 -75 64
-41 35 -211 169 -270 212 -680 497 -1396 828 -2207 1020 -147 35 -174 41 -233
50 -19 3 -51 9 -70 14 -31 8 -181 31 -295 46 -22 2 -53 6 -70 9 -87 11 -223
23 -355 31 -94 6 -547 13 -553 8z"/>
<path d="M8743 1206 c-57 -26 -88 -99 -63 -147 13 -23 14 -22 -142 -75 -65
-22 -108 -42 -108 -50 0 -21 22 -64 31 -59 4 3 74 28 155 56 136 47 149 50
160 34 20 -27 6 -43 -59 -65 -85 -28 -86 -29 -71 -67 14 -32 14 -32 49 -18 19
8 51 15 70 15 l37 0 -30 -25 c-35 -29 -44 -62 -26 -103 23 -57 89 -71 145 -31
l31 22 -15 -29 c-33 -63 -106 -110 -177 -114 -63 -4 -86 0 -106 15 -14 11 -15
15 -4 14 53 -5 82 26 82 88 0 75 -88 109 -159 61 -43 -30 -63 -79 -51 -128 40
-157 293 -174 440 -28 43 43 64 80 71 126 10 59 -9 98 -74 152 -33 28 -64 50
-68 50 -4 0 -6 24 -3 54 4 48 2 55 -24 80 -16 14 -36 26 -45 26 -32 0 -45 30
-28 63 16 29 79 19 79 -13 0 -28 15 -32 59 -19 46 14 45 29 -3 84 -25 30 -39
38 -76 41 -27 3 -58 -2 -77 -10z m133 -439 c9 -27 -21 -50 -47 -36 -24 12 -25
45 -2 57 22 13 41 5 49 -21z m-251 -117 c0 -20 -6 -26 -26 -28 -30 -4 -46 22
-28 45 20 23 54 12 54 -17z"/>
<path d="M4400 1043 c-8 -3 -38 -21 -66 -40 -28 -19 -60 -36 -70 -37 -25 -4
-54 11 -54 28 0 13 -48 36 -74 36 -17 0 -17 -39 0 -71 34 -67 126 -79 223 -29
48 25 69 31 94 26 32 -6 34 -4 44 29 10 30 9 37 -7 45 -23 12 -71 19 -90 13z"/>
<path d="M4386 860 c-21 -53 -20 -57 9 -64 61 -15 68 -132 12 -183 -62 -56
-116 -29 -118 60 -1 28 -1 56 0 60 3 18 -32 68 -57 81 -108 56 -222 -16 -222
-139 0 -54 14 -85 38 -85 9 0 30 -7 46 -15 l28 -15 -6 33 c-3 17 -8 43 -11 57
-7 35 23 100 46 100 32 0 50 -41 46 -101 -7 -89 19 -126 101 -150 163 -46 314
206 200 333 -13 14 -39 35 -59 46 l-37 22 -16 -40z"/>
<path d="M4724 848 c-15 -24 -10 -70 10 -99 26 -38 50 -51 143 -79 40 -13 71
-26 68 -30 -3 -5 -14 -6 -25 -3 -14 4 -31 -6 -54 -29 -28 -28 -34 -41 -30 -63
11 -62 50 -93 114 -89 l35 2 -40 -20 c-90 -47 -239 -5 -284 80 -11 21 -11 21
19 4 28 -16 31 -16 67 3 92 49 50 175 -59 175 -99 -1 -152 -100 -106 -201 41
-92 145 -150 273 -152 130 -2 222 56 232 147 3 25 1 58 -5 73 -6 16 -13 40
-16 55 -3 15 -22 44 -42 65 l-36 38 23 18 c18 14 33 17 60 13 35 -6 37 -4 43
25 9 46 9 46 -24 57 -36 13 -89 0 -127 -32 -46 -38 -73 -48 -108 -42 -32 6
-50 27 -46 53 3 21 -74 50 -85 31z m-6 -245 c-3 -32 -25 -40 -52 -20 -28 20
-14 47 24 47 28 0 31 -3 28 -27z m262 -28 c17 -20 8 -50 -15 -51 -27 0 -45 14
-45 36 0 29 40 39 60 15z"/>
<path d="M5845 834 c-20 -7 -38 -14 -39 -16 -24 -31 -36 -57 -36 -75 0 -20 -8
-27 -30 -25 -23 2 -136 15 -185 22 -33 4 -61 7 -62 6 0 0 -4 -18 -7 -38 -6
-37 -5 -38 24 -39 17 -1 33 -2 38 -3 8 -2 115 -15 182 -22 61 -7 77 -12 84
-30 12 -31 -5 -36 -97 -30 -49 4 -94 9 -98 12 -5 3 -9 -3 -10 -13 0 -10 -2
-28 -5 -40 -2 -14 1 -23 9 -24 21 -1 60 -8 112 -20 58 -13 97 -43 112 -85 24
-69 -18 -154 -76 -154 -38 0 -48 11 -55 53 -14 88 -64 137 -141 137 -59 0
-107 -28 -130 -76 -18 -38 -16 -94 3 -130 26 -49 109 -72 171 -47 31 12 36 12
56 -7 30 -28 104 -33 149 -11 33 18 35 17 54 -2 27 -27 118 -47 157 -34 76 25
127 90 140 181 17 112 -61 225 -153 222 -24 -1 -27 -5 -27 -40 0 -34 3 -40 22
-41 50 -4 91 -76 79 -139 -7 -35 -53 -94 -76 -97 -61 -6 -84 27 -82 119 2 49
-3 76 -19 109 -11 24 -24 43 -29 43 -18 0 -19 34 0 57 11 14 20 39 20 55 0 30
-28 88 -42 88 -14 0 -8 47 7 60 22 18 65 -2 66 -32 1 -13 2 -30 3 -38 1 -9 16
-16 45 -18 l44 -4 -5 50 c-5 56 -30 96 -72 114 -40 16 -59 17 -101 2z m-239
-489 c29 -44 -40 -99 -82 -64 -17 14 -18 28 -4 64 8 22 15 26 41 23 18 -2 37
-12 45 -23z"/>
<path d="M8059 836 c-26 -12 -41 -28 -61 -66 -45 -88 -57 -100 -99 -100 -33 0
-42 4 -46 21 -5 17 -11 20 -36 15 -16 -3 -38 -6 -47 -6 -16 0 -17 -4 -7 -36
21 -68 87 -92 194 -70 96 20 144 -11 159 -103 5 -34 2 -48 -20 -81 -14 -22
-30 -40 -34 -41 -4 0 -15 -2 -25 -4 -52 -10 -108 40 -157 139 -20 39 -38 58
-78 82 -183 110 -409 -86 -314 -272 40 -78 100 -114 187 -110 85 3 158 45 191
108 14 27 14 28 34 8 64 -64 184 -60 246 7 22 24 28 26 45 14 29 -18 111 -16
152 4 35 16 88 81 94 114 17 95 -4 168 -65 228 -28 28 -54 43 -80 47 -31 5
-91 1 -99 -8 -1 -1 2 -18 7 -38 10 -33 13 -35 50 -34 78 2 129 -90 100 -179
-13 -41 -46 -61 -83 -51 -26 6 -77 72 -77 99 0 41 -77 146 -108 147 -24 1 -32
18 -21 48 13 37 41 56 68 47 17 -5 18 -2 11 28 -13 59 -27 66 -81 43z m-309
-316 c55 -24 81 -100 53 -154 -60 -116 -223 -101 -240 23 -15 109 81 176 187
131z"/>
<path d="M6544 656 c-17 -8 -58 -42 -91 -76 -50 -51 -65 -61 -88 -58 -23 2
-36 14 -52 46 -4 10 -83 9 -84 -1 -9 -84 66 -145 158 -131 74 11 126 9 157 -7
67 -33 93 -121 52 -181 -38 -57 -96 -46 -96 17 0 103 -132 158 -226 93 -72
-49 -68 -172 8 -218 40 -24 105 -26 136 -4 20 13 24 14 37 0 22 -22 66 -28
120 -16 76 17 127 85 129 170 1 39 -13 112 -26 140 -19 38 -67 78 -102 85 -56
12 -65 16 -60 30 8 20 60 38 89 31 26 -7 26 -6 23 41 -3 43 -6 48 -28 50 -14
2 -39 -4 -56 -11z m-146 -358 c16 -16 15 -63 -2 -77 -39 -33 -86 -12 -86 38 0
34 17 51 50 51 14 0 31 -5 38 -12z"/>
<path d="M7204 583 c-5 -2 -8 -21 -6 -42 4 -39 4 -40 45 -38 38 2 42 0 45 -24
2 -19 -3 -28 -23 -37 -32 -15 -55 -2 -92 53 -33 49 -81 69 -132 55 -50 -13
-87 -43 -109 -88 -26 -53 -20 -70 26 -65 52 5 62 10 62 31 0 38 46 56 70 27
24 -29 4 -60 -59 -89 -33 -15 -65 -34 -72 -42 -19 -23 -17 -96 4 -127 40 -62
132 -79 191 -35 24 17 32 19 49 9 74 -47 205 9 209 89 3 64 -1 71 -29 66 -16
-2 -37 -5 -48 -5 -18 -1 -20 -6 -17 -34 3 -27 -1 -35 -20 -44 -31 -14 -58 0
-58 32 0 21 -4 23 -41 21 -36 -2 -43 -7 -55 -34 -7 -18 -18 -33 -24 -33 -5 -1
-16 -2 -22 -3 -28 -5 -49 15 -46 41 2 20 18 35 63 62 50 31 68 36 110 34 91
-4 165 51 165 121 0 66 -55 109 -133 105 -23 -2 -47 -4 -53 -6z"/>
<path d="M5198 524 c-51 -27 -72 -104 -47 -171 5 -15 25 -44 43 -63 49 -53 57
-66 62 -98 9 -58 -76 -124 -126 -99 -54 28 -50 82 6 82 22 1 29 7 36 30 4 16
6 30 5 31 -5 5 -211 43 -215 40 -2 -2 -6 -18 -8 -35 -5 -27 -2 -31 19 -31 30
0 40 -10 26 -26 -29 -35 -6 -101 52 -143 48 -35 144 -41 195 -11 66 38 89 75
89 145 -1 68 -14 94 -82 162 -44 44 -56 86 -31 111 19 19 46 14 53 -8 4 -12
18 -23 36 -27 50 -10 56 4 28 66 -26 59 -83 77 -141 45z"/>
</g>
</svg>
